@startuml

title 睡眠改善

hide empty members
skinparam class {
  BackgroundColor<<deprecated>> Grey
  BackgroundColor<<done>> Cyan
  BackgroundColor<<new>> Yellow
}

left to right direction


package 勝利条件 {
  class 眠りが理想的である
}

package 中間目的 {
  class 寝付きがよい
  寝付きがよい --> 眠りが理想的である

  class 寝起きがよい
  寝起きがよい --> 眠りが理想的である

  class 日中眠くならない
  日中眠くならない --> 眠りが理想的である

  class 覚醒後布団から脱出できる
  note bottom
  覚醒後「すぐに」出られないとあまり意味がないのと
  トイレから戻ってきて寒くて布団に逆戻りしてしまった
  end note
  朝の始業前定期タスクを欠かさずできる -> 寝起きがよい

  class 朝の始業前定期タスクを欠かさずできる
  覚醒後布団から脱出できる -> 朝の始業前定期タスクを欠かさずできる
}

package 施策 {
  class 睡眠の質を改善する<<done>>
  note bottom
  いったんdoneとする
  再び起票するときは中間目的「睡眠の質がよい」にすべきかな
  end note
  睡眠の質を改善する --> 寝起きがよい
  睡眠の質を改善する --> 日中眠くならない

  class 布団に入ったらスマホではなくkindleを見る<<done>>
  note bottom
  よい。継続
  end note
  布団に入ったらスマホではなくkindleを見る -> 睡眠の質を改善する

  class 寝る前に水を飲みすぎない<<done>>
  寝る前に水を飲みすぎない -> 睡眠の質を改善する

  class 睡眠中の体温を上げる<<done>>
  note bottom
  朝凍えているということがなくなった
  end note
  睡眠中の体温を上げる -> 睡眠の質を改善する

  class 着る毛布を買う<<done>>
  着る毛布を買う -> 睡眠中の体温を上げる

  class 寝る前に腹を減らさない
  寝る前に腹を減らさない --> 寝付きがよい
  寝る前に腹を減らさない --> 寝起きがよい
  寝る3_4時間前に豚肉を食べる -> 寝る前に腹を減らさない

  class 朝一番にやりたいことを目覚ましで読み上げる<<deprecated>>
  note bottom
  「今すぐにやりたいこと」でないと、今布団から脱出する理由にならない
  end note

  class 朝一番にやらなくていいことを読み上げない<<done>>
  朝一番にやらなくていいことを読み上げない --> 覚醒後布団から脱出できる

  class 朝食を前日のうちに仕込んでおく<<done>>
  note bottom
  よい。継続
  ただフレンチトーストはちょっと時間かかりすぎる気がする
  (両面焼くのに8分くらいかかる)
  end note
  朝食を前日のうちに仕込んでおく --> 覚醒後布団から脱出できる

  class スヌーズやめる<<deprecated>>
  note bottom
  スヌーズをやめてみたが、
  結局スヌーズ時よりも緊張状態で30分ほど布団の中でうだってしまった
  業務開始時間直前までスヌーズを無限に繰り返すよりはマシだが…
  end note
  スヌーズやめる --> 覚醒後布団から脱出できる
}

package 廟算八要素 {
  class メンバー {
   + 自分
  }
  class 予算規模 {
   + ...
  }
  class 納期 {
   + ...
  }
  class ビジネスモデル {
   + ...
  }
  class 環境 {
   + kindle
   + サウナ
   + 乾燥
   + 寒い
   + スヌーズ
  }

  class 競合 {
   + ...
  }
  class 外敵 {
   + ...
  }
  class 問題 {
   + 自律神経が壊れる
  }
  note right of 問題::自律神経が壊れる
  定期的にサウナに通って立て直している
  end note
}

中間目的 --u[hidden]--> 勝利条件
施策 --u[hidden]--> 中間目的
廟算八要素 ---u[hidden]--> 施策

@enduml
